<svg width="61" height="61" viewBox="0 0 61 61" fill="none" xmlns="http://www.w3.org/2000/svg">
<g clip-path="url(#clip0_235_757)">
<path d="M43.5707 4.35724H17.4279V8.71438H8.71359V17.4287H4.35645V43.5715H8.71359V52.2858H17.4279V56.643H43.5707V52.2858H52.285V43.5715H56.6422V17.4287H52.285V8.71438H43.5707V4.35724Z" fill="white"/>
<path d="M17.4286 39.2143H21.7857V43.5714H17.4286V39.2143Z" fill="#1C0B26"/>
<path d="M43.5714 39.2143H39.2143V43.5714H43.5714V39.2143Z" fill="#1C0B26"/>
<path d="M17.4286 17.4286H21.7857V21.7857H17.4286V17.4286Z" fill="#1C0B26"/>
<path d="M43.5714 17.4286H39.2143V21.7857H43.5714V17.4286Z" fill="#1C0B26"/>
<path d="M21.7857 21.7857H26.1429V26.1428H21.7857V21.7857Z" fill="#1C0B26"/>
<path d="M39.2143 21.7857H34.8571V26.1428H39.2143V21.7857Z" fill="#1C0B26"/>
<path d="M13.0714 21.7857H17.4286V26.1428H13.0714V21.7857Z" fill="#1C0B26"/>
<path d="M47.9286 21.7857H43.5714V26.1428H47.9286V21.7857Z" fill="#1C0B26"/>
<path d="M17.4286 56.6428V61H43.5714V56.6428H17.4286Z" fill="#1C0B26"/>
<path d="M39.2143 47.9286V43.5714H21.7857V47.9286H39.2143Z" fill="#1C0B26"/>
<path d="M8.71428 52.2857V56.6428H17.4286V52.2857H8.71428Z" fill="#1C0B26"/>
<path d="M8.71428 43.5714H4.35714V52.2857H8.71428V43.5714Z" fill="#1C0B26"/>
<path d="M0 43.5714H4.35714V17.4286H0V43.5714Z" fill="#1C0B26"/>
<path d="M4.35714 17.4286H8.71428V8.71427H4.35714V17.4286Z" fill="#1C0B26"/>
<path d="M8.71428 4.35713V8.71427H17.4286V4.35713H8.71428Z" fill="#1C0B26"/>
<path d="M17.4286 -1.52588e-05V4.35713H43.5714V-1.52588e-05H17.4286Z" fill="#1C0B26"/>
<path d="M52.2857 8.71427V4.35713H43.5714V8.71427H52.2857Z" fill="#1C0B26"/>
<path d="M52.2857 17.4286H56.6429V8.71427H52.2857V17.4286Z" fill="#1C0B26"/>
<path d="M56.6429 43.5714H61V17.4286H56.6429V43.5714Z" fill="#1C0B26"/>
<path d="M56.6429 43.5714H52.2857V52.2857H56.6429V43.5714Z" fill="#1C0B26"/>
<path d="M52.2857 56.6428V52.2857H43.5714V56.6428H52.2857Z" fill="#1C0B26"/>
</g>
<defs>
<clipPath id="clip0_235_757">
<rect width="61" height="61" fill="white"/>
</clipPath>
</defs>
</svg>
