<svg width="22" height="22" viewBox="0 0 22 22" fill="none" xmlns="http://www.w3.org/2000/svg">
<path d="M8 18.0001V16.0001H6V15.0001H5V14.0001H4V12.0001H2V10.0001H4V8.00006H0V14.0001H2V16.0001H3V17.0001H4V18.0001H6V20.0001H14V18.0001H8Z" fill="#372849"/>
<path d="M20 8.00006V6.00006H19V5.00006H18V4.00006H16V2.00006H8V4.00006H14V6.00006H16V7.00006H17V8.00006H18V10.0001H20V12.0001H18V14.0001H22V8.00006H20Z" fill="#372849"/>
<path d="M20 19.0001V17.0001H18V15.0001H16V13.0001H14V11.0001H12V9.00006H10V7.00006H8V5.00006H6V3.00006H4V1.00006H2V6.10352e-05H0V3.00006H2V5.00006H4V7.00006H6V9.00006H8V11.0001H10V13.0001H12V15.0001H14V17.0001H16V19.0001H18V21.0001H20V22.0001H22V19.0001H20Z" fill="#372849"/>
</svg>
