<svg width="46" height="44" viewBox="0 0 46 44" fill="none" xmlns="http://www.w3.org/2000/svg">
<g id="Group 746">
<path id="Vector 53" d="M32.625 30.2287V39.9787H29.4167V36.7287H19.7917H16.5833V26.9787H10.1667V23.7287H3.75V20.4787H10.1667V17.2287H16.5833V13.9787H23V10.7287H29.4167V7.4787H35.8333V4.2287H42.25V10.7287H39.0417V20.4787H35.8333V30.2287H32.625Z" fill="white"/>
<g id="Vector">
<path d="M0.541748 20.4787H3.75008V23.7287H0.541748V20.4787Z" fill="#1C0B26"/>
<path d="M29.4167 39.9787H32.6251V43.2287H29.4167V39.9787Z" fill="#1C0B26"/>
<path d="M26.2084 36.7287H29.4167V39.9787H26.2084V36.7287Z" fill="#1C0B26"/>
<path d="M19.7917 23.7287H23.0001V26.9787H19.7917V23.7287Z" fill="#1C0B26"/>
<path d="M23.0001 20.4787H26.2084V23.7287H23.0001V20.4787Z" fill="#1C0B26"/>
<path d="M26.2084 17.2287H29.4167V20.4787H26.2084V17.2287Z" fill="#1C0B26"/>
<path d="M29.4167 13.9787H32.6251V17.2287H29.4167V13.9787Z" fill="#1C0B26"/>
<path d="M32.6251 10.7287H35.8334V13.9787H32.6251V10.7287Z" fill="#1C0B26"/>
<path d="M35.8334 7.4787H39.0417V10.7287H35.8334V7.4787Z" fill="#1C0B26"/>
<path d="M3.75008 17.2287V20.4787H10.1667V17.2287H3.75008Z" fill="#1C0B26"/>
<path d="M10.1667 26.9787V23.7287H3.75008V26.9787H10.1667Z" fill="#1C0B26"/>
<path d="M19.7917 36.7287H16.5834V30.2287H19.7917V26.9787H10.1667V30.2287H13.3751V43.2287H16.5834V39.9787H19.7917V36.7287Z" fill="#1C0B26"/>
<path d="M26.2084 33.4787H23.0001V30.2287H19.7917V36.7287H26.2084V33.4787Z" fill="#1C0B26"/>
<path d="M35.8334 30.2287H32.6251V39.9787H35.8334V30.2287Z" fill="#1C0B26"/>
<path d="M39.0417 20.4787H35.8334V30.2287H39.0417V20.4787Z" fill="#1C0B26"/>
<path d="M10.1667 13.9787V17.2287H16.5834V13.9787H10.1667Z" fill="#1C0B26"/>
<path d="M16.5834 10.7287V13.9787H23.0001V10.7287H16.5834Z" fill="#1C0B26"/>
<path d="M23.0001 7.4787V10.7287H29.4167V7.4787H23.0001Z" fill="#1C0B26"/>
<path d="M35.8334 7.4787V4.2287H29.4167V7.4787H35.8334Z" fill="#1C0B26"/>
<path d="M35.8334 0.978699V4.2287H42.2501V0.978699H35.8334Z" fill="#1C0B26"/>
<path d="M45.4584 4.2287H42.2501V10.7287H45.4584V4.2287Z" fill="#1C0B26"/>
<path d="M42.2501 10.7287H39.0417V20.4787H42.2501V10.7287Z" fill="#1C0B26"/>
</g>
</g>
</svg>
